HIERARCHY
ROOT Hips
{
	OFFSET 0.000000 0.000000 0.000000
	CHANNELS 6 Xposition Yposition Zposition Zrotation Yrotation Xrotation 
	JOINT LHipJoint
	{
		OFFSET 0.000000 0.000000 0.000000
		CHANNELS 3 Zrotation Yrotation Xrotation
		JOINT LeftUpLeg
		{
			OFFSET 1.363060 -1.794630 0.839290
			CHANNELS 3 Zrotation Yrotation Xrotation
			JOINT LeftLeg
			{
				OFFSET 2.448110 -6.726130 0.000000
				CHANNELS 3 Zrotation Yrotation Xrotation
				JOINT LeftFoot
				{
					OFFSET 2.562200 -7.039590 0.000000
					CHANNELS 3 Zrotation Yrotation Xrotation
					JOINT LeftToeBase
					{
						OFFSET 0.157640 -0.433110 2.322550
						CHANNELS 3 Zrotation Yrotation Xrotation
						End Site
						{
							OFFSET 0.000000 0.000000 0.000000
						}
					}
				}
			}
		}
	}
	JOINT RHipJoint
	{
		OFFSET 0.000000 0.000000 0.000000
		CHANNELS 3 Zrotation Yrotation Xrotation
		JOINT RightUpLeg
		{
			OFFSET -1.305520 -1.794630 0.839290
			CHANNELS 3 Zrotation Yrotation Xrotation
			JOINT RightLeg
			{
				OFFSET -2.542530 -6.985550 0.000000
				CHANNELS 3 Zrotation Yrotation Xrotation
				JOINT RightFoot
				{
					OFFSET -2.568260 -7.056230 0.000000
					CHANNELS 3 Zrotation Yrotation Xrotation
					JOINT RightToeBase
					{
						OFFSET -0.164730 -0.452590 2.363150
						CHANNELS 3 Zrotation Yrotation Xrotation
						End Site
						{
							OFFSET 0.000000 0.000000 0.000000
						}
					}
				}
			}
		}
	}
	JOINT LowerBack
	{
		OFFSET 0.000000 0.000000 0.000000
		CHANNELS 3 Zrotation Yrotation Xrotation
		JOINT Spine
		{
			OFFSET 0.028270 2.035590 -0.193380
			CHANNELS 3 Zrotation Yrotation Xrotation
			JOINT Spine1
			{
				OFFSET 0.056720 2.048850 -0.042750
				CHANNELS 3 Zrotation Yrotation Xrotation
				JOINT Neck
				{
					OFFSET 0.000000 0.000000 0.000000
					CHANNELS 3 Zrotation Yrotation Xrotation
					JOINT Neck1
					{
						OFFSET -0.054170 1.746240 0.172020
						CHANNELS 3 Zrotation Yrotation Xrotation
						JOINT Head
						{
							OFFSET 0.104070 1.761360 -0.123970
							CHANNELS 3 Zrotation Yrotation Xrotation
							End Site
							{
								OFFSET 0.000000 0.000000 0.000000
							}
						}
					}
				}
				JOINT LeftShoulder
				{
					OFFSET 0.000000 0.000000 0.000000
					CHANNELS 3 Zrotation Yrotation Xrotation
					JOINT LeftArm
					{
						OFFSET 3.362410 1.200890 -0.311210
						CHANNELS 3 Zrotation Yrotation Xrotation
						JOINT LeftForeArm
						{
							OFFSET 4.983000 -0.000000 -0.000000
							CHANNELS 3 Zrotation Yrotation Xrotation
							JOINT LeftHand
							{
								OFFSET 3.483560 -0.000000 -0.000000
								CHANNELS 3 Zrotation Yrotation Xrotation
								JOINT LeftFingerBase
								{
									OFFSET 0.000000 0.000000 0.000000
									CHANNELS 3 Zrotation Yrotation Xrotation
									JOINT LeftHandIndex1
									{
										OFFSET 0.715260 -0.000000 -0.000000
										CHANNELS 3 Zrotation Yrotation Xrotation
										End Site
										{
											OFFSET 0.000000 0.000000 0.000000
										}
									}
								}
								JOINT LThumb
								{
									OFFSET 0.000000 0.000000 0.000000
									CHANNELS 3 Zrotation Yrotation Xrotation
									End Site
									{
										OFFSET 0.000000 0.000000 0.000000
									}
								}
							}
						}
					}
				}
				JOINT RightShoulder
				{
					OFFSET 0.000000 0.000000 0.000000
					CHANNELS 3 Zrotation Yrotation Xrotation
					JOINT RightArm
					{
						OFFSET -3.136600 1.374050 -0.404650
						CHANNELS 3 Zrotation Yrotation Xrotation
						JOINT RightForeArm
						{
							OFFSET -5.241900 -0.000000 -0.000000
							CHANNELS 3 Zrotation Yrotation Xrotation
							JOINT RightHand
							{
								OFFSET -3.444170 -0.000000 -0.000000
								CHANNELS 3 Zrotation Yrotation Xrotation
								JOINT RightFingerBase
								{
									OFFSET 0.000000 0.000000 0.000000
									CHANNELS 3 Zrotation Yrotation Xrotation
									JOINT RightHandIndex1
									{
										OFFSET -0.622530 -0.000000 -0.000000
										CHANNELS 3 Zrotation Yrotation Xrotation
										End Site
										{
											OFFSET 0.000000 0.000000 0.000000
										}
									}
								}
								JOINT RThumb
								{
									OFFSET 0.000000 0.000000 0.000000
									CHANNELS 3 Zrotation Yrotation Xrotation
									End Site
									{
										OFFSET 0.000000 0.000000 0.000000
									}
								}
							}
						}
					}
				}
			}
		}
	}
}
MOTION
Frames: 12
Frame Time: 0.008333
0.021693 17.081547 5.457912 -1.900452 -2.010164 6.800865 11.563287 2.435130 -2.566452 -23.076260 -14.492034 2.997099 -1.455391 2.653141 8.900970 -1.647760 18.828610 -14.395397 0.024000 -0.999300 -2.746900 -14.248643 -3.699263 -4.311838 27.658384 5.811499 3.977513 1.744479 -1.335024 7.452919 2.557064 -21.789498 -13.459762 -0.015700 -0.810100 2.226500 5.632327 -0.785279 1.378734 1.341462 -1.254520 -5.407902 -4.012889 -0.810135 -3.200819 4.455776 0.839184 -18.074895 6.189244 -0.126643 14.475987 -2.294400 1.471100 13.360800 13.954382 -10.161305 2.831642 -97.644532 7.389560 18.864490 26.858468 -35.743104 -5.805664 0.309425 5.019454 12.630539 7.298495 20.846950 2.247600 -7.125000 0.000000 0.000000 -18.058400 45.134500 -0.062000 -12.581917 12.612921 3.129636 98.602845 -5.365962 25.558874 -21.384586 32.212747 -3.556424 -1.894732 -2.304420 22.715001 -14.282304 -6.626676 0.882300 7.125000 0.000000 0.000000 10.745900 -33.628100 3.042000 
0.031358 17.081332 5.463174 -1.873634 -2.054490 6.848593 11.567925 2.431977 -2.564621 -23.143187 -14.485236 2.914219 -1.451075 2.697980 8.994931 -1.639463 18.814740 -14.467566 0.023900 -0.998300 -2.744300 -14.244405 -3.696827 -4.319609 27.585519 5.823584 4.024826 1.751001 -1.282168 7.327627 2.557345 -21.783007 -13.464285 -0.017500 -0.855200 2.350600 5.605290 -0.785491 1.323160 1.337075 -1.257431 -5.398142 -4.019923 -0.812228 -3.145444 4.455017 0.909569 -18.069896 6.132928 -0.029008 14.452212 -2.332600 1.504200 13.338100 13.980691 -10.150328 2.826722 -97.604907 7.347100 18.419678 26.624458 -35.506326 -5.724956 0.337628 5.013990 12.915779 7.319748 20.782105 2.243700 -7.125000 0.000000 0.000000 -18.021900 45.077600 -0.035700 -12.574273 12.585803 3.126161 98.531081 -5.187376 25.704723 -21.547581 32.354741 -3.565712 -1.754956 -2.373622 21.519787 -13.588199 -6.615057 0.841700 7.125000 0.000000 0.000000 11.228400 -33.605500 3.189400 
0.039412 17.081010 5.467470 -1.880990 -2.121512 6.894505 11.570413 2.433057 -2.568642 -23.163857 -14.431701 2.870031 -1.450568 2.706467 9.007551 -1.633565 18.796598 -14.501840 0.022400 -0.966900 -2.657700 -14.245427 -3.691828 -4.317435 27.582509 5.885483 4.032490 1.754643 -1.265754 7.281690 2.550510 -21.764039 -13.511577 -0.018900 -0.887800 2.440100 5.605449 -0.777416 1.297489 1.333101 -1.246701 -5.392697 -4.027317 -0.810434 -3.114252 4.469694 0.980803 -18.088424 6.074186 0.065423 14.443246 -2.375800 1.540200 13.342700 14.009769 -10.140857 2.815432 -97.498361 7.315948 18.163486 26.330582 -35.203021 -5.623440 0.365927 5.017722 13.252836 7.321636 20.779831 2.243900 -7.125000 0.000000 0.000000 -18.015400 45.070900 -0.032600 -12.559690 12.564328 3.125003 98.429474 -5.011671 25.955397 -21.792268 32.594728 -3.605566 -1.519453 -2.631907 19.746839 -12.356693 -7.607261 0.953900 7.125000 0.000000 0.000000 12.174600 -34.426900 3.220400 
0.047252 17.081547 5.472302 -1.858532 -2.174884 6.917859 11.574055 2.435902 -2.569093 -23.223843 -14.384878 2.860636 -1.451160 2.711600 9.015040 -1.630189 18.790997 -14.526115 0.022800 -0.975500 -2.681300 -14.239459 -3.688378 -4.315239 27.519341 5.929987 4.036326 1.754643 -1.254562 7.258355 2.560441 -21.796216 -13.480557 -0.017400 -0.852500 2.342900 5.591679 -0.778069 1.300736 1.326733 -1.242524 -5.395824 -4.030191 -0.812679 -3.141644 4.468116 1.062126 -18.006762 6.007656 0.177959 14.428411 -2.418000 1.580400 13.310500 14.011159 -10.142587 2.820249 -97.487773 7.477506 17.889170 26.222198 -35.067025 -5.579349 0.383181 5.002837 13.823268 7.197836 20.714990 2.211300 -7.125000 0.000000 0.000000 -18.084700 45.017100 -0.007900 -12.508361 12.548305 3.139760 98.247816 -4.944286 26.460546 -22.239348 33.002664 -3.714753 -1.295420 -2.905634 16.806432 -11.508289 -8.593932 1.057500 7.125000 0.000000 0.000000 12.885500 -35.214500 3.163600 
0.054877 17.081869 5.477135 -1.839799 -2.236992 6.943856 11.577575 2.439230 -2.573452 -23.279533 -14.322180 2.863357 -1.453560 2.704753 8.993763 -1.627866 18.787885 -14.540302 0.022500 -0.969300 -2.664400 -14.235741 -3.684171 -4.312165 27.474596 5.990637 4.028531 1.753109 -1.255714 7.263175 2.563512 -21.808850 -13.488359 -0.016600 -0.831000 2.284100 5.573517 -0.777879 1.296375 1.321371 -1.238837 -5.393270 -4.032205 -0.814189 -3.134763 4.472340 1.141815 -17.976441 5.945092 0.287131 14.414940 -2.459800 1.620400 13.295400 14.023813 -10.137986 2.818813 -97.436038 7.550043 17.642231 26.045532 -34.869731 -5.513414 0.400922 4.992961 14.279663 7.110596 20.659737 2.186800 -7.125000 0.000000 0.000000 -18.130500 44.968900 0.014400 -12.473164 12.528235 3.147504 98.095222 -4.819948 26.813844 -22.589072 33.317617 -3.794842 -1.080027 -3.106835 14.456257 -10.702493 -9.374278 1.113700 7.125000 0.000000 0.000000 13.556100 -35.834700 3.125500 
0.061642 17.082191 5.481860 -1.820793 -2.304002 6.962130 11.581141 2.444757 -2.581340 -23.335925 -14.237612 2.904077 -1.459222 2.675170 8.920156 -1.628677 18.792495 -14.528431 0.022300 -0.963100 -2.647300 -14.232181 -3.679256 -4.305217 27.438393 6.071356 3.992065 1.747182 -1.283769 7.333658 2.563984 -21.817688 -13.518917 -0.015300 -0.798100 2.193600 5.555087 -0.776924 1.304193 1.315050 -1.232405 -5.390745 -4.037326 -0.814875 -3.131578 4.479405 1.221655 -17.946478 5.882752 0.395695 14.402397 -2.501800 1.660700 13.281900 14.033020 -10.134038 2.818854 -97.377722 7.640895 17.454958 25.890204 -34.689569 -5.453245 0.414842 4.981315 14.736288 7.005935 20.599588 2.158200 -7.125000 0.000000 0.000000 -18.188500 44.917400 0.038400 -12.434871 12.509033 3.156606 97.932098 -4.703323 27.158778 -22.956903 33.642852 -3.883747 -0.869035 -3.285826 12.079396 -10.005092 -10.119685 1.159200 7.125000 0.000000 0.000000 14.160000 -36.423500 3.062400 
0.067656 17.082513 5.486263 -1.799905 -2.375867 6.973797 11.584706 2.451065 -2.589879 -23.393211 -14.145990 2.951648 -1.464742 2.644603 8.846172 -1.629219 18.795312 -14.516939 0.022000 -0.956800 -2.629800 -14.228297 -3.674171 -4.297852 27.401525 6.156362 3.957676 1.740910 -1.312845 7.406992 2.565190 -21.828659 -13.544239 -0.013900 -0.761500 2.092900 5.533208 -0.775072 1.322232 1.307998 -1.223533 -5.388393 -4.044956 -0.814268 -3.131217 4.489532 1.299648 -17.920431 5.821090 0.501021 14.391854 -2.543900 1.700300 13.272200 14.039270 -10.130903 2.820516 -97.314192 7.747122 17.325814 25.759016 -34.531097 -5.400482 0.423323 4.970331 15.161821 6.886375 20.547065 2.127500 -7.125000 0.000000 0.000000 -18.259900 44.872100 0.059700 -12.396135 12.491383 3.165682 97.764977 -4.593786 27.472483 -23.318673 33.954785 -3.974419 -0.681723 -3.425200 9.864459 -9.466286 -10.731318 1.189500 7.125000 0.000000 0.000000 14.644200 -36.903200 2.995800 
0.072703 17.082621 5.490559 -1.777118 -2.452376 6.980290 11.588351 2.458222 -2.599842 -23.450752 -14.045187 3.010429 -1.470747 2.609238 8.762276 -1.630012 18.797734 -14.502871 0.021500 -0.946600 -2.602000 -14.224335 -3.668818 -4.289870 27.366276 6.247806 3.921093 1.733891 -1.346505 7.492208 2.564705 -21.833920 -13.577195 -0.012700 -0.727700 1.999900 5.507536 -0.771612 1.346884 1.300028 -1.211649 -5.385100 -4.057507 -0.812077 -3.126584 4.505210 1.376025 -17.905250 5.761338 0.602792 14.382790 -2.586000 1.739400 13.267400 14.043677 -10.127466 2.823626 -97.238601 7.859181 17.266797 25.646811 -34.391054 -5.354681 0.427309 4.962956 15.518122 6.769606 20.517753 2.100000 -7.125000 0.000000 0.000000 -18.336500 44.846000 0.072200 -12.359951 12.474592 3.173766 97.599672 -4.486853 27.741576 -23.652483 34.235988 -4.061007 -0.532054 -3.523198 7.991026 -9.097603 -11.184814 1.209300 7.125000 0.000000 0.000000 14.989800 -37.257800 2.936300 
0.076892 17.082513 5.494639 -1.756082 -2.531036 6.983448 11.591885 2.465897 -2.610871 -23.504001 -13.938447 3.076817 -1.477050 2.570102 8.670767 -1.630717 18.798673 -14.487016 0.020900 -0.932500 -2.563100 -14.220693 -3.663325 -4.281160 27.336838 6.343508 3.882205 1.726325 -1.384051 7.586796 2.561527 -21.830624 -13.622221 -0.011900 -0.705200 1.938100 5.481921 -0.766193 1.376613 1.291373 -1.196445 -5.381323 -4.076221 -0.808083 -3.122704 4.524705 1.451487 -17.887218 5.704064 0.702413 14.372497 -2.627100 1.778100 13.260300 14.045404 -10.125313 2.830075 -97.156397 7.989897 17.279541 25.563722 -34.280631 -5.320758 0.428696 4.961042 15.789816 6.672211 20.524643 2.081100 -7.125000 0.000000 0.000000 -18.408700 44.850300 0.070500 -12.326517 12.458941 3.180829 97.438151 -4.388216 27.967387 -23.944547 34.476528 -4.141385 -0.433672 -3.583444 6.579496 -8.924830 -11.472011 1.225900 7.125000 0.000000 0.000000 15.170700 -37.482800 2.887500 
0.080328 17.082191 5.498828 -1.729982 -2.607988 6.983486 11.595607 2.473840 -2.621936 -23.560813 -13.831145 3.150752 -1.483727 2.527991 8.572608 -1.631771 18.800604 -14.467611 0.020300 -0.919600 -2.527700 -14.216584 -3.657951 -4.272367 27.303850 6.437824 3.841675 1.717650 -1.424602 7.690411 2.555818 -21.818790 -13.679473 -0.011500 -0.692000 1.901700 5.449843 -0.761499 1.409544 1.282409 -1.181781 -5.377909 -4.098734 -0.803983 -3.121204 4.547793 1.527214 -17.868944 5.649810 0.802122 14.363646 -2.666700 1.817600 13.254700 14.044816 -10.124907 2.839835 -97.070178 8.141758 17.364926 25.510679 -34.201844 -5.299308 0.427893 4.965689 15.954119 6.604359 20.572058 2.073000 -7.125000 0.000000 0.000000 -18.470800 44.888700 0.052600 -12.297238 12.445585 3.186070 97.281450 -4.300147 28.157798 -24.179024 34.662663 -4.211305 -0.396548 -3.608420 5.705759 -8.966846 -11.575866 1.242600 7.125000 0.000000 0.000000 15.166700 -37.565500 2.855000 
0.083120 17.081761 5.503553 -1.698201 -2.680090 6.981212 11.599690 2.481778 -2.633179 -23.623351 -13.725982 3.232917 -1.490955 2.483288 8.468348 -1.633145 18.803789 -14.447160 0.019700 -0.907300 -2.493800 -14.211877 -3.653020 -4.264430 27.266074 6.526317 3.802101 1.708021 -1.467562 7.801935 2.548847 -21.802550 -13.745974 -0.011100 -0.679800 1.868100 5.413098 -0.758537 1.439328 1.273125 -1.169427 -5.373449 -4.127595 -0.800453 -3.115562 4.573584 1.606652 -17.844095 5.598182 0.906699 14.352565 -2.704600 1.859300 13.244000 14.042529 -10.125230 2.853743 -96.978827 8.312377 17.528399 25.485425 -34.153733 -5.289807 0.424604 4.977658 16.009656 6.563797 20.665821 2.076000 -7.125000 0.000000 0.000000 -18.525900 44.965500 0.016400 -12.272598 12.432254 3.189698 97.131226 -4.217267 28.314986 -24.349936 34.793198 -4.269809 -0.420305 -3.604552 5.386095 -9.211886 -11.519536 1.262000 7.125000 0.000000 0.000000 14.987600 -37.524100 2.835000 
0.085376 17.081332 5.508600 -1.662497 -2.746435 6.977175 11.603927 2.489595 -2.644223 -23.688842 -13.624898 3.320947 -1.498463 2.436889 8.359992 -1.634808 18.808851 -14.425352 0.019300 -0.896600 -2.464300 -14.206849 -3.648556 -4.257176 27.226279 6.608107 3.763376 1.697659 -1.512190 7.919330 2.541311 -21.784737 -13.816619 -0.010600 -0.665200 1.828100 5.372895 -0.758095 1.466762 1.264104 -1.160615 -5.368658 -4.159379 -0.798118 -3.109719 4.599013 1.688881 -17.809210 5.548979 1.015898 14.340345 -2.740300 1.902800 13.228500 14.038811 -10.126723 2.871315 -96.884732 8.502268 17.770387 25.484400 -34.132883 -5.290670 0.420116 4.995438 15.957595 6.557581 20.794708 2.090300 -7.125000 0.000000 0.000000 -18.565900 45.071800 -0.034100 -12.251704 12.419060 3.191797 96.985926 -4.137864 28.435839 -24.465686 34.876103 -4.317947 -0.485087 -3.584160 5.556739 -9.571835 -11.390685 1.285300 7.125000 0.000000 0.000000 14.709600 -37.429400 2.814700 
